<?xml version="1.0" encoding="UTF-8" standalone="no"?>
<!DOCTYPE svg PUBLIC "-//W3C//DTD SVG 1.1//EN"
 "http://www.w3.org/Graphics/SVG/1.1/DTD/svg11.dtd">
<!-- Generated by graphviz version 2.43.0 (0)
 -->
<!-- Title: electrical_system Pages: 1 -->
<svg width="1006pt" height="468pt"
 viewBox="0.00 0.00 1006.29 467.50" xmlns="http://www.w3.org/2000/svg" xmlns:xlink="http://www.w3.org/1999/xlink">
<g id="graph0" class="graph" transform="scale(1 1) rotate(0) translate(4 463.5)">
<title>electrical_system</title>
<polygon fill="white" stroke="transparent" points="-4,4 -4,-463.5 1002.29,-463.5 1002.29,4 -4,4"/>
<g id="clust2" class="cluster">
<title>cluster_dashboard_box</title>
<polygon fill="none" stroke="black" stroke-dasharray="5,2" points="22.39,-253 22.39,-328 210.39,-328 210.39,-253 22.39,-253"/>
<text text-anchor="middle" x="116.39" y="-312.8" font-family="Times" font-size="14.00">dashboard_box</text>
</g>
<g id="clust4" class="cluster">
<title>cluster_front_box</title>
<polygon fill="none" stroke="black" stroke-dasharray="5,2" points="401.39,-159 401.39,-234 571.39,-234 571.39,-159 401.39,-159"/>
<text text-anchor="middle" x="486.39" y="-218.8" font-family="Times" font-size="14.00">front_box</text>
</g>
<g id="clust6" class="cluster">
<title>cluster_rear_box</title>
<polygon fill="none" stroke="black" stroke-dasharray="5,2" points="759.39,-65 759.39,-140 839.39,-140 839.39,-65 759.39,-65"/>
<text text-anchor="middle" x="799.39" y="-124.8" font-family="Times" font-size="14.00">rear_box</text>
</g>
<g id="clust9" class="cluster">
<title>cluster_legend</title>
<polygon fill="#fff2cc" stroke="#ffe599" points="323.39,-336 323.39,-451.5 812.39,-451.5 812.39,-336 323.39,-336"/>
<text text-anchor="middle" x="567.89" y="-436.3" font-family="Times" font-size="14.00">legend</text>
</g>
<g id="clust10" class="cluster">
<title>cluster_communication_protocol</title>
<polygon fill="none" stroke="black" stroke-dasharray="5,2" points="595.39,-344 595.39,-420.5 804.39,-420.5 804.39,-344 595.39,-344"/>
<text text-anchor="middle" x="699.89" y="-405.3" font-family="Times" font-size="14.00">communication protocol</text>
</g>
<!-- display -->
<g id="node1" class="node">
<title>display</title>
<ellipse fill="#f4cccc" stroke="#ea9999" cx="166.39" cy="-279" rx="36.29" ry="18"/>
<text text-anchor="middle" x="166.39" y="-275.3" font-family="Times" font-size="14.00">display</text>
</g>
<!-- stm32_dashboard -->
<g id="node2" class="node">
<title>stm32_dashboard</title>
<ellipse fill="#f4cccc" stroke="#ea9999" cx="62.39" cy="-279" rx="32.49" ry="18"/>
<text text-anchor="middle" x="62.39" y="-275.3" font-family="Times" font-size="14.00">stm32</text>
</g>
<!-- stm32_dashboard&#45;&gt;display -->
<g id="edge8" class="edge">
<title>stm32_dashboard&#45;&gt;display</title>
<path fill="none" stroke="green" d="M94.89,-279C103.17,-279 111.44,-279 119.71,-279"/>
<polygon fill="green" stroke="green" points="119.81,-282.5 129.81,-279 119.81,-275.5 119.81,-282.5"/>
</g>
<!-- stm32_front -->
<g id="node4" class="node">
<title>stm32_front</title>
<ellipse fill="#f4cccc" stroke="#ea9999" cx="531.39" cy="-185" rx="32.49" ry="18"/>
<text text-anchor="middle" x="531.39" y="-181.3" font-family="Times" font-size="14.00">stm32</text>
</g>
<!-- stm32_dashboard&#45;&gt;stm32_front -->
<g id="edge4" class="edge">
<title>stm32_dashboard&#45;&gt;stm32_front</title>
<path fill="none" stroke="blue" d="M85.31,-266.1C95.99,-261.13 109.04,-255.86 121.39,-253 197.5,-235.39 399.52,-262.14 472.39,-234 490.13,-227.15 506.58,-212.82 517.58,-201.59"/>
</g>
<!-- indicator_light -->
<g id="node18" class="node">
<title>indicator_light</title>
<ellipse fill="#b6d7a8" stroke="#93c47d" cx="62.39" cy="-185" rx="62.29" ry="18"/>
<text text-anchor="middle" x="62.39" y="-181.3" font-family="Times" font-size="14.00">indicator_light</text>
</g>
<!-- stm32_dashboard&#45;&gt;indicator_light -->
<g id="edge16" class="edge">
<title>stm32_dashboard&#45;&gt;indicator_light</title>
<path fill="none" stroke="brown" d="M62.39,-260.7C62.39,-247.46 62.39,-228.95 62.39,-213.66"/>
<polygon fill="brown" stroke="brown" points="65.89,-213.23 62.39,-203.23 58.89,-213.23 65.89,-213.23"/>
</g>
<!-- rpi -->
<g id="node3" class="node">
<title>rpi</title>
<ellipse fill="#f4cccc" stroke="#ea9999" cx="436.39" cy="-185" rx="27" ry="18"/>
<text text-anchor="middle" x="436.39" y="-181.3" font-family="Times" font-size="14.00">rpi</text>
</g>
<!-- rpi&#45;&gt;stm32_front -->
<g id="edge3" class="edge">
<title>rpi&#45;&gt;stm32_front</title>
<path fill="none" stroke="blue" d="M463.48,-185C475.24,-185 487.01,-185 498.77,-185"/>
</g>
<!-- server -->
<g id="node7" class="node">
<title>server</title>
<ellipse fill="#f4cccc" stroke="#ea9999" cx="389.39" cy="-91" rx="32.49" ry="18"/>
<text text-anchor="middle" x="389.39" y="-87.3" font-family="Times" font-size="14.00">server</text>
</g>
<!-- rpi&#45;&gt;server -->
<g id="edge10" class="edge">
<title>rpi&#45;&gt;server</title>
<path fill="none" stroke="black" stroke-dasharray="5,2" d="M427.99,-167.55C420.95,-153.77 410.77,-133.85 402.64,-117.92"/>
<polygon fill="black" stroke="black" points="405.55,-115.93 397.88,-108.62 399.32,-119.11 405.55,-115.93"/>
</g>
<!-- alarm -->
<g id="node16" class="node">
<title>alarm</title>
<ellipse fill="#b6d7a8" stroke="#93c47d" cx="471.39" cy="-91" rx="31.7" ry="18"/>
<text text-anchor="middle" x="471.39" y="-87.3" font-family="Times" font-size="14.00">alarm</text>
</g>
<!-- rpi&#45;&gt;alarm -->
<g id="edge14" class="edge">
<title>rpi&#45;&gt;alarm</title>
<path fill="none" stroke="brown" d="M442.81,-167.13C447.99,-153.51 455.38,-134.11 461.34,-118.43"/>
<polygon fill="brown" stroke="brown" points="464.73,-119.36 465.02,-108.77 458.19,-116.87 464.73,-119.36"/>
</g>
<!-- stm32_rear -->
<g id="node5" class="node">
<title>stm32_rear</title>
<ellipse fill="#f4cccc" stroke="#ea9999" cx="799.39" cy="-91" rx="32.49" ry="18"/>
<text text-anchor="middle" x="799.39" y="-87.3" font-family="Times" font-size="14.00">stm32</text>
</g>
<!-- stm32_front&#45;&gt;stm32_rear -->
<g id="edge5" class="edge">
<title>stm32_front&#45;&gt;stm32_rear</title>
<path fill="none" stroke="blue" d="M558.57,-174.67C610.07,-156.99 721.3,-118.81 772.55,-101.22"/>
</g>
<!-- brake_light -->
<g id="node17" class="node">
<title>brake_light</title>
<ellipse fill="#b6d7a8" stroke="#93c47d" cx="799.39" cy="-18" rx="50.89" ry="18"/>
<text text-anchor="middle" x="799.39" y="-14.3" font-family="Times" font-size="14.00">brake_light</text>
</g>
<!-- stm32_rear&#45;&gt;brake_light -->
<g id="edge15" class="edge">
<title>stm32_rear&#45;&gt;brake_light</title>
<path fill="none" stroke="brown" d="M799.39,-72.81C799.39,-64.79 799.39,-55.05 799.39,-46.07"/>
<polygon fill="brown" stroke="brown" points="802.89,-46.03 799.39,-36.03 795.89,-46.03 802.89,-46.03"/>
</g>
<!-- inverter -->
<g id="node6" class="node">
<title>inverter</title>
<ellipse fill="#f4cccc" stroke="#ea9999" cx="259.39" cy="-279" rx="38.19" ry="18"/>
<text text-anchor="middle" x="259.39" y="-275.3" font-family="Times" font-size="14.00">inverter</text>
</g>
<!-- inverter&#45;&gt;rpi -->
<g id="edge2" class="edge">
<title>inverter&#45;&gt;rpi</title>
<path fill="none" stroke="blue" d="M283.76,-264.96C291.03,-261.09 299.03,-256.86 306.39,-253 344.86,-232.86 389.94,-209.73 415.64,-196.59"/>
</g>
<!-- accelerator -->
<g id="node8" class="node">
<title>accelerator</title>
<ellipse fill="#a4c2f4" stroke="#6d9eeb" cx="663.39" cy="-279" rx="49.29" ry="18"/>
<text text-anchor="middle" x="663.39" y="-275.3" font-family="Times" font-size="14.00">accelerator</text>
</g>
<!-- accelerator&#45;&gt;stm32_front -->
<g id="edge11" class="edge">
<title>accelerator&#45;&gt;stm32_front</title>
<path fill="none" stroke="brown" d="M641.6,-262.81C619.16,-247.17 584.12,-222.75 559.59,-205.65"/>
<polygon fill="brown" stroke="brown" points="561.27,-202.56 551.07,-199.71 557.27,-208.3 561.27,-202.56"/>
</g>
<!-- brake -->
<g id="node9" class="node">
<title>brake</title>
<ellipse fill="#a4c2f4" stroke="#6d9eeb" cx="418.39" cy="-279" rx="30.59" ry="18"/>
<text text-anchor="middle" x="418.39" y="-275.3" font-family="Times" font-size="14.00">brake</text>
</g>
<!-- brake&#45;&gt;stm32_front -->
<g id="edge12" class="edge">
<title>brake&#45;&gt;stm32_front</title>
<path fill="none" stroke="brown" d="M435.56,-264.03C454.28,-248.78 484.45,-224.22 505.93,-206.73"/>
<polygon fill="brown" stroke="brown" points="508.15,-209.44 513.7,-200.41 503.73,-204.01 508.15,-209.44"/>
</g>
<!-- button -->
<g id="node10" class="node">
<title>button</title>
<ellipse fill="#a4c2f4" stroke="#6d9eeb" cx="62.39" cy="-389" rx="33.29" ry="18"/>
<text text-anchor="middle" x="62.39" y="-385.3" font-family="Times" font-size="14.00">button</text>
</g>
<!-- button&#45;&gt;stm32_dashboard -->
<g id="edge13" class="edge">
<title>button&#45;&gt;stm32_dashboard</title>
<path fill="none" stroke="brown" d="M62.39,-370.65C62.39,-353.56 62.39,-327.22 62.39,-307.32"/>
<polygon fill="brown" stroke="brown" points="65.89,-307.31 62.39,-297.31 58.89,-307.31 65.89,-307.31"/>
</g>
<!-- gps -->
<g id="node11" class="node">
<title>gps</title>
<ellipse fill="#a4c2f4" stroke="#6d9eeb" cx="342.39" cy="-279" rx="27" ry="18"/>
<text text-anchor="middle" x="342.39" y="-275.3" font-family="Times" font-size="14.00">gps</text>
</g>
<!-- gps&#45;&gt;rpi -->
<g id="edge9" class="edge">
<title>gps&#45;&gt;rpi</title>
<path fill="none" stroke="red" d="M357.08,-263.62C372.4,-248.64 396.58,-224.97 414.22,-207.7"/>
<polygon fill="red" stroke="red" points="417.11,-209.77 421.81,-200.27 412.22,-204.77 417.11,-209.77"/>
</g>
<!-- imu -->
<g id="node12" class="node">
<title>imu</title>
<ellipse fill="#a4c2f4" stroke="#6d9eeb" cx="259.39" cy="-389" rx="27" ry="18"/>
<text text-anchor="middle" x="259.39" y="-385.3" font-family="Times" font-size="14.00">imu</text>
</g>
<!-- imu&#45;&gt;inverter -->
<g id="edge1" class="edge">
<title>imu&#45;&gt;inverter</title>
<path fill="none" stroke="blue" d="M259.39,-370.65C259.39,-350.49 259.39,-317.44 259.39,-297.31"/>
</g>
<!-- steering_wheel -->
<g id="node13" class="node">
<title>steering_wheel</title>
<ellipse fill="#a4c2f4" stroke="#6d9eeb" cx="531.39" cy="-279" rx="64.19" ry="18"/>
<text text-anchor="middle" x="531.39" y="-275.3" font-family="Times" font-size="14.00">steering_wheel</text>
</g>
<!-- steering_wheel&#45;&gt;stm32_front -->
<g id="edge17" class="edge">
<title>steering_wheel&#45;&gt;stm32_front</title>
<path fill="none" stroke="brown" d="M531.39,-260.7C531.39,-247.46 531.39,-228.95 531.39,-213.66"/>
<polygon fill="brown" stroke="brown" points="534.89,-213.23 531.39,-203.23 527.89,-213.23 534.89,-213.23"/>
</g>
<!-- tire_temperature -->
<g id="node14" class="node">
<title>tire_temperature</title>
<ellipse fill="#a4c2f4" stroke="#6d9eeb" cx="799.39" cy="-279" rx="68.79" ry="18"/>
<text text-anchor="middle" x="799.39" y="-275.3" font-family="Times" font-size="14.00">tire_temperature</text>
</g>
<!-- tire_temperature&#45;&gt;stm32_front -->
<g id="edge6" class="edge">
<title>tire_temperature&#45;&gt;stm32_front</title>
<path fill="none" stroke="yellow" d="M759.27,-264.23C707.5,-246.45 618.15,-215.78 568.09,-198.6"/>
<polygon fill="yellow" stroke="yellow" points="568.93,-195.18 558.33,-195.25 566.65,-201.8 568.93,-195.18"/>
</g>
<!-- tire_temperature&#45;&gt;stm32_rear -->
<g id="edge7" class="edge">
<title>tire_temperature&#45;&gt;stm32_rear</title>
<path fill="none" stroke="yellow" d="M799.39,-260.83C799.39,-228.45 799.39,-158.09 799.39,-119.2"/>
<polygon fill="yellow" stroke="yellow" points="802.89,-119.12 799.39,-109.12 795.89,-119.12 802.89,-119.12"/>
</g>
<!-- wheel_speed -->
<g id="node15" class="node">
<title>wheel_speed</title>
<ellipse fill="#a4c2f4" stroke="#6d9eeb" cx="942.39" cy="-279" rx="55.79" ry="18"/>
<text text-anchor="middle" x="942.39" y="-275.3" font-family="Times" font-size="14.00">wheel_speed</text>
</g>
<!-- wheel_speed&#45;&gt;stm32_front -->
<g id="edge18" class="edge">
<title>wheel_speed&#45;&gt;stm32_front</title>
<path fill="none" stroke="brown" d="M910.04,-264.27C899.74,-260.25 888.2,-256.1 877.39,-253 769.37,-222.03 638.24,-201.01 572.77,-191.61"/>
<polygon fill="brown" stroke="brown" points="573.24,-188.14 562.84,-190.2 572.25,-195.07 573.24,-188.14"/>
</g>
<!-- wheel_speed&#45;&gt;stm32_rear -->
<g id="edge19" class="edge">
<title>wheel_speed&#45;&gt;stm32_rear</title>
<path fill="none" stroke="brown" d="M929.45,-261.17C903.95,-227.99 847.13,-154.09 817.76,-115.89"/>
<polygon fill="brown" stroke="brown" points="820.46,-113.66 811.59,-107.87 814.92,-117.93 820.46,-113.66"/>
</g>
<!-- controller -->
<g id="node19" class="node">
<title>controller</title>
<ellipse fill="#f4cccc" stroke="#ea9999" cx="542.39" cy="-389" rx="44.69" ry="18"/>
<text text-anchor="middle" x="542.39" y="-385.3" font-family="Times" font-size="14.00">controller</text>
</g>
<!-- sensor -->
<g id="node20" class="node">
<title>sensor</title>
<ellipse fill="#a4c2f4" stroke="#6d9eeb" cx="446.39" cy="-389" rx="33.29" ry="18"/>
<text text-anchor="middle" x="446.39" y="-385.3" font-family="Times" font-size="14.00">sensor</text>
</g>
<!-- utility -->
<g id="node21" class="node">
<title>utility</title>
<ellipse fill="#b6d7a8" stroke="#93c47d" cx="363.39" cy="-389" rx="31.7" ry="18"/>
<text text-anchor="middle" x="363.39" y="-385.3" font-family="Times" font-size="14.00">utility</text>
</g>
<!-- n0 -->
<g id="node22" class="node">
<title>n0</title>
<polygon fill="lightgrey" stroke="transparent" points="752.89,-389.5 751.89,-389.5 751.89,-388.5 752.89,-388.5 752.89,-389.5"/>
</g>
<!-- n1 -->
<g id="node23" class="node">
<title>n1</title>
<polygon fill="lightgrey" stroke="transparent" points="790.89,-389.5 789.89,-389.5 789.89,-388.5 790.89,-388.5 790.89,-389.5"/>
</g>
<!-- n0&#45;&gt;n1 -->
<g id="edge20" class="edge">
<title>n0&#45;&gt;n1</title>
<path fill="none" stroke="blue" d="M753.05,-389C757.63,-389 784.58,-389 789.59,-389"/>
<text text-anchor="middle" x="771.39" y="-395.8" font-family="Times" font-size="14.00">can</text>
</g>
<!-- n2 -->
<g id="node24" class="node">
<title>n2</title>
<polygon fill="lightgrey" stroke="transparent" points="692.89,-389.5 691.89,-389.5 691.89,-388.5 692.89,-388.5 692.89,-389.5"/>
</g>
<!-- n3 -->
<g id="node25" class="node">
<title>n3</title>
<polygon fill="lightgrey" stroke="transparent" points="729.89,-389.5 728.89,-389.5 728.89,-388.5 729.89,-388.5 729.89,-389.5"/>
</g>
<!-- n2&#45;&gt;n3 -->
<g id="edge21" class="edge">
<title>n2&#45;&gt;n3</title>
<path fill="none" stroke="yellow" d="M693.31,-389C696.74,-389 709.11,-389 718.42,-389"/>
<polygon fill="yellow" stroke="yellow" points="718.64,-392.5 728.64,-389 718.64,-385.5 718.64,-392.5"/>
<text text-anchor="middle" x="710.89" y="-395.8" font-family="Times" font-size="14.00">i2c</text>
</g>
<!-- n4 -->
<g id="node26" class="node">
<title>n4</title>
<polygon fill="lightgrey" stroke="transparent" points="623.89,-389.5 622.89,-389.5 622.89,-388.5 623.89,-388.5 623.89,-389.5"/>
</g>
<!-- n5 -->
<g id="node27" class="node">
<title>n5</title>
<polygon fill="lightgrey" stroke="transparent" points="664.89,-389.5 663.89,-389.5 663.89,-388.5 664.89,-388.5 664.89,-389.5"/>
</g>
<!-- n4&#45;&gt;n5 -->
<g id="edge22" class="edge">
<title>n4&#45;&gt;n5</title>
<path fill="none" stroke="green" d="M624.11,-389C627.54,-389 642.64,-389 653.34,-389"/>
<polygon fill="green" stroke="green" points="653.53,-392.5 663.53,-389 653.53,-385.5 653.53,-392.5"/>
<text text-anchor="middle" x="643.89" y="-395.8" font-family="Times" font-size="14.00">uart</text>
</g>
<!-- n6 -->
<g id="node28" class="node">
<title>n6</title>
<polygon fill="lightgrey" stroke="transparent" points="757.89,-353 756.89,-353 756.89,-352 757.89,-352 757.89,-353"/>
</g>
<!-- n7 -->
<g id="node29" class="node">
<title>n7</title>
<polygon fill="lightgrey" stroke="transparent" points="795.89,-353 794.89,-353 794.89,-352 795.89,-352 795.89,-353"/>
</g>
<!-- n6&#45;&gt;n7 -->
<g id="edge23" class="edge">
<title>n6&#45;&gt;n7</title>
<path fill="none" stroke="red" d="M758.05,-352.5C761.16,-352.5 774.61,-352.5 784.48,-352.5"/>
<polygon fill="red" stroke="red" points="784.59,-356 794.59,-352.5 784.59,-349 784.59,-356"/>
<text text-anchor="middle" x="776.39" y="-359.3" font-family="Times" font-size="14.00">usb</text>
</g>
<!-- n8 -->
<g id="node30" class="node">
<title>n8</title>
<polygon fill="lightgrey" stroke="transparent" points="687.89,-353 686.89,-353 686.89,-352 687.89,-352 687.89,-353"/>
</g>
<!-- n9 -->
<g id="node31" class="node">
<title>n9</title>
<polygon fill="lightgrey" stroke="transparent" points="751.89,-353 750.89,-353 750.89,-352 751.89,-352 751.89,-353"/>
</g>
<!-- n8&#45;&gt;n9 -->
<g id="edge24" class="edge">
<title>n8&#45;&gt;n9</title>
<path fill="none" stroke="black" stroke-dasharray="5,2" d="M688.11,-352.5C693.19,-352.5 723.88,-352.5 740.58,-352.5"/>
<polygon fill="black" stroke="black" points="740.76,-356 750.76,-352.5 740.76,-349 740.76,-356"/>
<text text-anchor="middle" x="719.39" y="-359.3" font-family="Times" font-size="14.00">wireless</text>
</g>
<!-- n10 -->
<g id="node32" class="node">
<title>n10</title>
<polygon fill="lightgrey" stroke="transparent" points="604.89,-353 603.89,-353 603.89,-352 604.89,-352 604.89,-353"/>
</g>
<!-- n11 -->
<g id="node33" class="node">
<title>n11</title>
<polygon fill="lightgrey" stroke="transparent" points="681.89,-353 680.89,-353 680.89,-352 681.89,-352 681.89,-353"/>
</g>
<!-- n10&#45;&gt;n11 -->
<g id="edge25" class="edge">
<title>n10&#45;&gt;n11</title>
<path fill="none" stroke="brown" d="M605.26,-352.5C611.58,-352.5 650.95,-352.5 670.46,-352.5"/>
<polygon fill="brown" stroke="brown" points="670.63,-356 680.63,-352.5 670.63,-349 670.63,-356"/>
<text text-anchor="middle" x="642.89" y="-359.3" font-family="Times" font-size="14.00">other/none</text>
</g>
</g>
</svg>
