<?xml version="1.0" encoding="UTF-8" standalone="no"?>
<!DOCTYPE svg PUBLIC "-//W3C//DTD SVG 1.1//EN"
 "http://www.w3.org/Graphics/SVG/1.1/DTD/svg11.dtd">
<!-- Generated by graphviz version 2.43.0 (0)
 -->
<!-- Title: program_structure Pages: 1 -->
<svg width="1129pt" height="257pt"
 viewBox="0.00 0.00 1129.46 257.00" xmlns="http://www.w3.org/2000/svg" xmlns:xlink="http://www.w3.org/1999/xlink">
<g id="graph0" class="graph" transform="scale(1 1) rotate(0) translate(4 253)">
<title>program_structure</title>
<polygon fill="white" stroke="transparent" points="-4,4 -4,-253 1125.46,-253 1125.46,4 -4,4"/>
<g id="clust1" class="cluster">
<title>cluster_legend</title>
<polygon fill="#fff2cc" stroke="#ffe599" points="793.46,-166 793.46,-241 1009.46,-241 1009.46,-166 793.46,-166"/>
<text text-anchor="middle" x="901.46" y="-225.8" font-family="Times" font-size="14.00">legend</text>
</g>
<!-- nturt_bag_recorder_node -->
<g id="node1" class="node">
<title>nturt_bag_recorder_node</title>
<ellipse fill="#f4cccc" stroke="#ea9999" cx="100.46" cy="-18" rx="100.18" ry="18"/>
<text text-anchor="middle" x="100.46" y="-14.3" font-family="Times" font-size="14.00">nturt_bag_recorder_node</text>
</g>
<!-- nturt_can_parser_node -->
<g id="node2" class="node">
<title>nturt_can_parser_node</title>
<ellipse fill="#f4cccc" stroke="#ea9999" cx="691.46" cy="-192" rx="91.78" ry="18"/>
<text text-anchor="middle" x="691.46" y="-188.3" font-family="Times" font-size="14.00">nturt_can_parser_node</text>
</g>
<!-- nturt_push_to_control_tower_node -->
<g id="node5" class="node">
<title>nturt_push_to_control_tower_node</title>
<ellipse fill="#f4cccc" stroke="#ea9999" cx="199.46" cy="-105" rx="135.38" ry="18"/>
<text text-anchor="middle" x="199.46" y="-101.3" font-family="Times" font-size="14.00">nturt_push_to_control_tower_node</text>
</g>
<!-- nturt_can_parser_node&#45;&gt;nturt_push_to_control_tower_node -->
<g id="edge2" class="edge">
<title>nturt_can_parser_node&#45;&gt;nturt_push_to_control_tower_node</title>
<path fill="none" stroke="blue" d="M602.94,-187.11C533.85,-182.83 435.75,-173.98 351.46,-156 317.04,-148.66 279.47,-136.34 250.29,-125.77"/>
<polygon fill="blue" stroke="blue" points="251.32,-122.42 240.73,-122.26 248.91,-128.99 251.32,-122.42"/>
<text text-anchor="middle" x="396.96" y="-144.8" font-family="Times" font-size="14.00">/can_notification</text>
</g>
<!-- nturt_state_controller_node -->
<g id="node6" class="node">
<title>nturt_state_controller_node</title>
<ellipse fill="#f4cccc" stroke="#ea9999" cx="785.46" cy="-105" rx="108.58" ry="18"/>
<text text-anchor="middle" x="785.46" y="-101.3" font-family="Times" font-size="14.00">nturt_state_controller_node</text>
</g>
<!-- nturt_can_parser_node&#45;&gt;nturt_state_controller_node -->
<g id="edge3" class="edge">
<title>nturt_can_parser_node&#45;&gt;nturt_state_controller_node</title>
<path fill="none" stroke="blue" d="M757.11,-179.18C769.04,-174.02 780.03,-166.61 787.46,-156 792.03,-149.47 793.07,-141.19 792.52,-133.26"/>
<polygon fill="blue" stroke="blue" points="795.96,-132.6 791.04,-123.22 789.03,-133.62 795.96,-132.6"/>
<text text-anchor="middle" x="837.96" y="-144.8" font-family="Times" font-size="14.00">/can_notification</text>
</g>
<!-- nturt_torque_controller_node -->
<g id="node7" class="node">
<title>nturt_torque_controller_node</title>
<ellipse fill="#f4cccc" stroke="#ea9999" cx="930.46" cy="-18" rx="114.28" ry="18"/>
<text text-anchor="middle" x="930.46" y="-14.3" font-family="Times" font-size="14.00">nturt_torque_controller_node</text>
</g>
<!-- nturt_can_parser_node&#45;&gt;nturt_torque_controller_node -->
<g id="edge4" class="edge">
<title>nturt_can_parser_node&#45;&gt;nturt_torque_controller_node</title>
<path fill="none" stroke="blue" d="M741,-176.84C756.42,-172.85 773.55,-168.82 789.46,-166 811.01,-162.17 869.52,-168.55 887.46,-156 922.33,-131.6 929.81,-78.83 930.93,-46.37"/>
<polygon fill="blue" stroke="blue" points="934.43,-46.26 931.1,-36.21 927.43,-46.15 934.43,-46.26"/>
<text text-anchor="middle" x="970.96" y="-101.3" font-family="Times" font-size="14.00">/can_notification</text>
</g>
<!-- socket_can_bridge_node -->
<g id="node9" class="node">
<title>socket_can_bridge_node</title>
<ellipse fill="#f4cccc" stroke="#ea9999" cx="451.46" cy="-105" rx="98.58" ry="18"/>
<text text-anchor="middle" x="451.46" y="-101.3" font-family="Times" font-size="14.00">socket_can_bridge_node</text>
</g>
<!-- nturt_can_parser_node&#45;&gt;socket_can_bridge_node -->
<g id="edge1" class="edge">
<title>nturt_can_parser_node&#45;&gt;socket_can_bridge_node</title>
<path fill="none" stroke="blue" d="M600.67,-189.52C541.53,-186.42 471.87,-178.02 452.46,-156 447.05,-149.86 445.48,-141.47 445.67,-133.32"/>
<polygon fill="blue" stroke="blue" points="449.16,-133.6 446.68,-123.3 442.19,-132.9 449.16,-133.6"/>
<text text-anchor="middle" x="494.96" y="-144.8" font-family="Times" font-size="14.00">/sent_messages</text>
</g>
<!-- nturt_gps_node -->
<g id="node3" class="node">
<title>nturt_gps_node</title>
<ellipse fill="#f4cccc" stroke="#ea9999" cx="97.46" cy="-192" rx="66.09" ry="18"/>
<text text-anchor="middle" x="97.46" y="-188.3" font-family="Times" font-size="14.00">nturt_gps_node</text>
</g>
<!-- nturt_gps_node&#45;&gt;nturt_bag_recorder_node -->
<g id="edge5" class="edge">
<title>nturt_gps_node&#45;&gt;nturt_bag_recorder_node</title>
<path fill="none" stroke="blue" d="M64.25,-176.33C43.2,-165.06 17.71,-147.3 5.46,-123 -1.75,-108.71 -1.86,-101.23 5.46,-87 15.94,-66.6 35.7,-50.95 54.5,-39.84"/>
<polygon fill="blue" stroke="blue" points="56.3,-42.84 63.32,-34.9 52.88,-36.74 56.3,-42.84"/>
<text text-anchor="middle" x="30.46" y="-101.3" font-family="Times" font-size="14.00">/GPS_fix</text>
</g>
<!-- nturt_gps_node&#45;&gt;nturt_push_to_control_tower_node -->
<g id="edge6" class="edge">
<title>nturt_gps_node&#45;&gt;nturt_push_to_control_tower_node</title>
<path fill="none" stroke="blue" d="M117.13,-174.61C132.45,-161.84 153.93,-143.94 171.11,-129.62"/>
<polygon fill="blue" stroke="blue" points="173.71,-132.01 179.15,-122.92 169.23,-126.63 173.71,-132.01"/>
<text text-anchor="middle" x="180.46" y="-144.8" font-family="Times" font-size="14.00">/GPS_fix</text>
</g>
<!-- nturt_led_controller_node -->
<g id="node4" class="node">
<title>nturt_led_controller_node</title>
<ellipse fill="#f4cccc" stroke="#ea9999" cx="577.46" cy="-18" rx="102.88" ry="18"/>
<text text-anchor="middle" x="577.46" y="-14.3" font-family="Times" font-size="14.00">nturt_led_controller_node</text>
</g>
<!-- nturt_state_controller_node&#45;&gt;nturt_can_parser_node -->
<g id="edge12" class="edge">
<title>nturt_state_controller_node&#45;&gt;nturt_can_parser_node</title>
<path fill="none" stroke="green" d="M716.19,-119.01C705.28,-124.11 695.35,-131.18 688.46,-141 683.87,-147.53 682.96,-155.81 683.68,-163.74"/>
<polygon fill="green" stroke="green" points="680.26,-164.51 685.39,-173.78 687.16,-163.34 680.26,-164.51"/>
<text text-anchor="middle" x="735.96" y="-144.8" font-family="Times" font-size="14.00">/update_can_data</text>
</g>
<!-- nturt_state_controller_node&#45;&gt;nturt_torque_controller_node -->
<g id="edge7" class="edge">
<title>nturt_state_controller_node&#45;&gt;nturt_torque_controller_node</title>
<path fill="none" stroke="blue" d="M806.48,-87.11C819.78,-76.85 837.6,-63.86 854.46,-54 863.3,-48.83 873.03,-43.85 882.5,-39.35"/>
<polygon fill="blue" stroke="blue" points="884.23,-42.41 891.83,-35.03 881.29,-36.06 884.23,-42.41"/>
<text text-anchor="middle" x="885.46" y="-57.8" font-family="Times" font-size="14.00">/node_state</text>
</g>
<!-- nturt_torque_controller_node&#45;&gt;nturt_can_parser_node -->
<g id="edge13" class="edge">
<title>nturt_torque_controller_node&#45;&gt;nturt_can_parser_node</title>
<path fill="none" stroke="green" d="M962.34,-35.32C997.1,-55.3 1044.77,-90.49 1020.46,-123 989.19,-164.81 840.95,-157.33 789.46,-166 776.82,-168.13 763.42,-171.07 750.73,-174.2"/>
<polygon fill="green" stroke="green" points="749.56,-170.89 740.72,-176.73 751.27,-177.67 749.56,-170.89"/>
<text text-anchor="middle" x="1073.96" y="-101.3" font-family="Times" font-size="14.00">/update_can_data</text>
</g>
<!-- rosmaster -->
<g id="node8" class="node">
<title>rosmaster</title>
<ellipse fill="#f4cccc" stroke="#ea9999" cx="613.46" cy="-105" rx="45.49" ry="18"/>
<text text-anchor="middle" x="613.46" y="-101.3" font-family="Times" font-size="14.00">rosmaster</text>
</g>
<!-- rosmaster&#45;&gt;nturt_led_controller_node -->
<g id="edge8" class="edge">
<title>rosmaster&#45;&gt;nturt_led_controller_node</title>
<path fill="none" stroke="blue" d="M606.35,-87.21C601.3,-75.29 594.43,-59.06 588.65,-45.42"/>
<polygon fill="blue" stroke="blue" points="591.8,-43.89 584.68,-36.05 585.36,-46.62 591.8,-43.89"/>
<text text-anchor="middle" x="617.46" y="-57.8" font-family="Times" font-size="14.00">/rosout</text>
</g>
<!-- socket_can_bridge_node&#45;&gt;nturt_bag_recorder_node -->
<g id="edge9" class="edge">
<title>socket_can_bridge_node&#45;&gt;nturt_bag_recorder_node</title>
<path fill="none" stroke="blue" d="M394.67,-90.25C332.57,-75.21 233.14,-51.13 167.31,-35.19"/>
<polygon fill="blue" stroke="blue" points="168,-31.75 157.45,-32.8 166.35,-38.56 168,-31.75"/>
<text text-anchor="middle" x="351.96" y="-57.8" font-family="Times" font-size="14.00">/received_messages</text>
</g>
<!-- socket_can_bridge_node&#45;&gt;nturt_can_parser_node -->
<g id="edge10" class="edge">
<title>socket_can_bridge_node&#45;&gt;nturt_can_parser_node</title>
<path fill="none" stroke="blue" d="M490.52,-121.62C505.27,-127.59 522.17,-134.52 537.46,-141 552.66,-147.45 555.94,-150.34 571.46,-156 589.86,-162.71 610.21,-169.04 628.84,-174.42"/>
<polygon fill="blue" stroke="blue" points="628.12,-177.86 638.7,-177.23 630.04,-171.13 628.12,-177.86"/>
<text text-anchor="middle" x="625.96" y="-144.8" font-family="Times" font-size="14.00">/received_messages</text>
</g>
<!-- socket_can_bridge_node&#45;&gt;nturt_led_controller_node -->
<g id="edge11" class="edge">
<title>socket_can_bridge_node&#45;&gt;nturt_led_controller_node</title>
<path fill="none" stroke="blue" d="M457.91,-86.63C462.68,-75.91 470.14,-62.62 480.46,-54 488.88,-46.97 498.82,-41.3 509.07,-36.75"/>
<polygon fill="blue" stroke="blue" points="510.62,-39.89 518.54,-32.87 507.96,-33.42 510.62,-39.89"/>
<text text-anchor="middle" x="534.96" y="-57.8" font-family="Times" font-size="14.00">/received_messages</text>
</g>
<!-- n0 -->
<g id="node10" class="node">
<title>n0</title>
<polygon fill="#f4cccc" stroke="transparent" points="953.96,-192.5 952.96,-192.5 952.96,-191.5 953.96,-191.5 953.96,-192.5"/>
</g>
<!-- n1 -->
<g id="node11" class="node">
<title>n1</title>
<polygon fill="#f4cccc" stroke="transparent" points="1000.96,-192.5 999.96,-192.5 999.96,-191.5 1000.96,-191.5 1000.96,-192.5"/>
</g>
<!-- n0&#45;&gt;n1 -->
<g id="edge14" class="edge">
<title>n0&#45;&gt;n1</title>
<path fill="none" stroke="blue" d="M953.99,-192C957.44,-192 977.12,-192 989.74,-192"/>
<polygon fill="blue" stroke="blue" points="989.74,-195.5 999.74,-192 989.74,-188.5 989.74,-195.5"/>
<text text-anchor="middle" x="976.96" y="-198.8" font-family="Times" font-size="14.00">topic</text>
</g>
<!-- n2 -->
<g id="node12" class="node">
<title>n2</title>
<polygon fill="#f4cccc" stroke="transparent" points="875.96,-192.5 874.96,-192.5 874.96,-191.5 875.96,-191.5 875.96,-192.5"/>
</g>
<!-- n3 -->
<g id="node13" class="node">
<title>n3</title>
<polygon fill="#f4cccc" stroke="transparent" points="934.96,-192.5 933.96,-192.5 933.96,-191.5 934.96,-191.5 934.96,-192.5"/>
</g>
<!-- n2&#45;&gt;n3 -->
<g id="edge15" class="edge">
<title>n2&#45;&gt;n3</title>
<path fill="none" stroke="lawngreen" d="M876.12,-192C880.73,-192 908.23,-192 923.78,-192"/>
<polygon fill="lawngreen" stroke="lawngreen" points="923.87,-195.5 933.87,-192 923.87,-188.5 923.87,-195.5"/>
<text text-anchor="middle" x="904.96" y="-198.8" font-family="Times" font-size="14.00">service</text>
</g>
<!-- nodes -->
<g id="node14" class="node">
<title>nodes</title>
<ellipse fill="#f4cccc" stroke="#ea9999" cx="829.46" cy="-192" rx="27.9" ry="18"/>
<text text-anchor="middle" x="829.46" y="-188.3" font-family="Times" font-size="14.00">node</text>
</g>
</g>
</svg>
